# xmcd
#
# Track frame offsets:
#	150
#	32683
#	81334
#	116954
#	147426
#
# Disc length: 2461 seconds
# Revision: 1
# Processed by: cddbd v1.5.2PL0 Copyright (c) Steve Scherf et al.
# Submitted via: dBpowerAMP V12.0
#
DISCID=44099b05
DTITLE=Lester Levenson - A Fireside Chat with Lester Levenson CD 01
DYEAR=1974
DGENRE=Home Study
TTITLE0=Looking for Happiness pt 1
TTITLE1=Looking for Happiness pt 2
TTITLE2=Looking for Happiness pt 3
TTITLE3=Being in the Now pt 1
TTITLE4=Being in the Now pt 2
EXTD=
EXTT0=
EXTT1=
EXTT2=
EXTT3=
EXTT4=
PLAYORDER=
